# xmcd
#
# Track frame offsets:
#	150
#	15023
#	28473
#	42148
#	56168
#	70165
#	83675
#	97463
#	111728
#	125803
#	139623
#	153200
#	167448
#	182115
#	195768
#	210178
#
# Disc length: 2980 seconds
#
# Revision: 12
# Processed by: cddbd v1.5.2PL0 Copyright (c) Steve Scherf et al.
# Submitted via: audiograbber 1.83.01
#
DISCID=d50ba210
DTITLE=Bee Gees - 16 Greatest Hits
DYEAR=1989
DGENRE=Ballad
TTITLE0=How Can You Mend A Broken Heart?
TTITLE1=Jive Talkin'
TTITLE2=Run To Me
TTITLE3=I Started A Joke
TTITLE4=You Should Be Dancing
TTITLE5=Too Much Heaven
TTITLE6=My World
TTITLE7=Night Fever
TTITLE8=Stayin' Alive
TTITLE9=How Deep Is Your Love
TTITLE10=Tragedy
TTITLE11=Love So Right
TTITLE12=Words
TTITLE13=Cherry Red
TTITLE14=Melody Fair
TTITLE15=To Love Somebody
EXTD=MS®
EXTT0=
EXTT1=Jive talkin'
EXTT2=Run to me
EXTT3=I started a joke
EXTT4=You should be dancing
EXTT5=Too much heaven
EXTT6=My world
EXTT7=Night fever
EXTT8=Staying alive
EXTT9=How deep is your love
EXTT10=Tragedy
EXTT11=Love so right
EXTT12=Words
EXTT13=Cherry red
EXTT14=Melody fair
EXTT15=To love somebody
PLAYORDER=
